<?xml version="1.0" encoding="UTF-8" standalone="no"?>
<!-- Created with Inkscape (http://www.inkscape.org/) -->

<svg
   width="70mm"
   height="24mm"
   viewBox="0 0 70 24"
   id="SVGRoot"
   version="1.1"
   xmlns="http://www.w3.org/2000/svg"
   xmlns:svg="http://www.w3.org/2000/svg">
  <defs
     id="defs1" />
  <g
     id="layer1">
    <path
       d="m 69.275031,15.349337 c -0.153904,0.129138 -0.360481,0.185551 -0.459033,0.125364 -0.09852,-0.06019 -0.572915,-0.0072 -1.054106,0.117651 -0.844635,0.219223 -0.875494,0.256955 -0.891938,1.090479 -0.04635,2.351641 -0.155919,5.714659 -0.196737,6.03997 -0.05216,0.416199 -0.02205,0.409879 -1.799951,0.377175 -0.923035,-0.01696 -1.480526,0.08142 -1.850372,0.326605 -0.960307,0.636612 -1.017805,0.242077 -0.554729,-3.806482 0.233536,-2.041696 0.394174,-3.742277 0.356984,-3.779067 -0.03723,-0.0368 -0.503988,-0.0899 -1.037354,-0.118007 -0.533354,-0.02811 -1.053678,-0.139215 -1.156285,-0.246889 -0.108831,-0.114154 -0.09045,-0.893712 0.0441,-1.869934 l 0.230679,-1.674164 0.885797,-0.123067 c 1.092374,-0.151769 1.721814,0.139189 0.740725,0.342393 -0.884268,0.183149 -1.045191,0.411359 -1.211377,1.717994 l -0.139073,1.093374 0.811216,0.01782 c 0.44617,0.0098 1.057579,6.29e-4 1.358677,-0.02016 0.512074,-0.03553 0.54221,0.01205 0.466348,0.736143 -0.04458,0.425771 -0.160543,0.926226 -0.257625,1.112125 -0.09709,0.1859 -0.233216,0.779076 -0.302486,1.318169 -0.251093,1.953918 -0.506964,4.045259 -0.5125,4.188904 -0.0036,0.08079 0.65321,0.141276 1.458522,0.134407 1.937021,-0.01653 1.950951,-0.04632 1.948378,-4.168209 l -0.0024,-3.241281 1.254091,-0.111296 1.254091,-0.111285 -0.08026,-1.358821 c -0.0441,-0.747353 -0.126922,-1.405621 -0.184016,-1.462823 -0.05702,-0.0572 -0.495026,-0.101895 -0.973182,-0.09933 l -0.869401,0.0046 0.03308,-1.829941 0.03308,-1.829938 -0.942323,0.0051 c -0.88933,0.0047 -0.960319,0.04876 -1.262069,0.782011 -0.17586,0.427326 -0.314009,1.110306 -0.307002,1.517737 0.0071,0.40743 -0.0358,0.910677 -0.0952,1.118326 -0.182511,0.638179 -0.702207,-0.0069 -0.706878,-0.87731 -0.0036,-0.725519 0.59097,-2.788626 0.891713,-3.092612 0.26379,-0.266644 2.741017,-0.0719 2.979165,0.234195 0.158575,0.203829 0.168841,0.675486 0.03367,1.544751 -0.273274,1.756971 -0.144088,1.988682 1.016572,1.823243 l 0.93617,-0.133441 0.01185,1.198354 c 0.0059,0.659093 0.09461,1.548009 0.19631,1.97537 0.136667,0.574379 0.111914,0.83825 -0.09496,1.011811 z m -11.517305,2.456235 c -0.75788,2.387224 -1.345613,3.161854 -3.232768,4.260827 -2.336925,1.360891 -4.226206,1.505113 -5.649848,0.431285 -0.659865,-0.497719 -0.742062,-0.682945 -0.964548,-2.173477 -0.133764,-0.896164 -0.296176,-2.866475 -0.360911,-4.37847 -0.0953,-2.225985 -0.06243,-2.770633 0.172791,-2.862344 0.232582,-0.09069 0.317719,0.33193 0.427082,2.120072 0.275452,4.503825 0.541967,6.168403 1.053034,6.577013 0.631114,0.504587 1.323441,0.768244 1.998183,0.760964 1.203583,-0.01298 3.422047,-1.096032 4.683886,-2.28665 0.712688,-0.672466 1.581496,-3.341041 1.721151,-5.286585 l 0.09864,-1.373508 -1.202011,0.02603 c -1.350722,0.02927 -1.305886,-0.02842 -1.740019,2.239091 -0.123993,0.647635 -0.50246,1.61956 -0.841038,2.159832 -0.591682,0.944157 -0.650018,0.980008 -1.501726,0.922915 -0.819956,-0.05496 -0.921005,-0.129492 -1.353062,-0.997915 -0.356519,-0.71659 -0.471033,-1.323264 -0.484285,-2.565627 -0.01195,-1.119174 -0.09907,-1.648362 -0.279119,-1.695167 -1.100438,-0.286091 -1.504073,-0.470582 -1.415001,-0.646761 0.109068,-0.215741 2.07358,-0.305613 2.201736,-0.100722 0.04108,0.06569 0.133237,1.090401 0.204786,2.277146 0.141947,2.354486 0.435992,3.250359 1.065724,3.246978 0.520092,-0.0028 1.517018,-1.447861 1.665218,-2.413773 0.172003,-1.121066 0.780069,-3.018047 1.022449,-3.189727 0.118979,-0.08428 0.404867,-0.08976 0.635309,-0.01218 0.230441,0.07757 0.933194,0.142231 1.561662,0.143677 l 1.142663,0.0025 0.03462,1.306265 c 0.02573,0.970771 -0.144977,1.871791 -0.664484,3.50817 z m -12.390862,1.608217 c -0.253156,1.098669 -0.600274,1.62091 -1.701077,2.559281 -0.894242,0.762288 -1.198989,0.891773 -2.499956,1.062231 -2.107789,0.276166 -3.011513,0.08543 -4.040347,-0.852749 -1.184765,-1.080371 -1.794658,-2.356561 -1.795981,-3.758065 -0.0023,-2.242385 0.49222,-3.259427 2.298886,-4.729709 0.688077,-0.559963 1.061251,-0.690534 2.32699,-0.814188 1.838809,-0.179641 3.037064,0.242441 4.105405,1.446114 1.318786,1.485847 1.749407,3.163084 1.30608,5.087085 z m -0.671878,-2.677967 c -0.135562,-0.403466 -0.547962,-1.157309 -0.916441,-1.675207 -2.209443,-3.105379 -7.29851,-1.405655 -7.745808,2.587062 -0.159517,1.423906 0.206745,2.494307 1.308576,3.82432 0.845146,1.020164 1.620749,1.229441 3.71797,1.003188 1.130401,-0.121948 1.423787,-0.252434 2.304823,-1.025086 0.771679,-0.676746 1.065744,-1.111774 1.248064,-1.846348 0.343129,-1.382449 0.362028,-2.036929 0.08282,-2.867929 z m -2.705901,2.146324 c -0.190161,0.518588 -0.311526,0.576739 -1.213804,0.581583 -0.551385,0.0028 -1.10121,-0.112245 -1.22183,-0.256005 -0.436844,-0.520649 -0.506868,-1.353079 -0.169438,-2.014274 0.284008,-0.556512 0.449167,-0.652281 1.131222,-0.655942 1.248468,-0.0068 1.935368,1.086032 1.47385,2.344638 z m -0.555252,-1.223529 c -0.274119,-0.41128 -1.020983,-0.523663 -1.291344,-0.194321 -0.400282,0.487617 -0.185513,1.261395 0.371174,1.337266 0.796386,0.108534 1.320442,-0.542394 0.92017,-1.142945 z m -8.226944,-0.810482 c -0.271431,1.770871 -1.564308,3.743747 -2.927522,4.467275 -0.729321,0.38709 -1.803762,0.385885 -2.748925,-0.0031 -0.912526,-0.375536 -0.974451,-0.378516 -0.97673,-0.04703 -0.0047,0.6849 -0.383319,0.838867 -2.290684,0.93155 l -1.928057,0.09369 0.12241,-1.83506 c 0.256863,-3.850644 0.276273,-7.378265 0.05611,-10.199333 -0.392139,-5.024794 -0.268353,-8.424516 0.313939,-8.622093 0.166036,-0.05634 0.234621,0.904323 0.23766,3.328939 0.0023,1.87447 0.04658,5.948656 0.09828,9.053746 0.0517,3.10509 0.03052,6.033331 -0.04705,6.5072 l -0.141051,0.861579 1.112071,0.103057 c 1.43551,0.133024 1.842953,-0.08844 1.838063,-0.999092 -0.0053,-0.990149 0.305269,-1.085037 1.150008,-0.35134 1.32538,1.151156 2.60279,1.059253 3.930481,-0.282776 1.150151,-1.162566 1.642141,-2.782636 1.545767,-5.090015 -0.09369,-2.243078 -0.450793,-2.916851 -1.793274,-3.383486 -1.010296,-0.351172 -1.802944,-0.181474 -2.51521,0.538484 -0.939429,0.949574 -1.064389,0.633272 -1.136872,-2.877689 -0.03636,-1.761232 -0.04954,-3.871923 -0.02926,-4.690427 0.03457,-1.397077 0.0071,-1.495967 -0.448563,-1.615381 C 25.728357,2.500953 24.610601,2.606127 24.260895,2.95961 23.941269,3.282689 23.921807,3.264474 23.983169,2.699707 l 0.06599,-0.607329 1.673239,0.05866 c 0.920282,0.03226 1.742864,0.125341 1.827959,0.206842 0.0851,0.0815 0.189896,2.073693 0.232886,4.427091 0.07584,4.151132 0.09064,4.27649 0.495965,4.197934 0.229787,-0.04454 1.029226,-0.124798 1.776522,-0.178361 1.327266,-0.09513 1.376587,-0.08009 2.129757,0.649537 0.504282,0.488519 0.817671,1.015487 0.905863,1.523209 0.231086,1.330402 0.27573,2.825844 0.115564,3.870838 z m -3.079407,0.653757 c -0.495892,0.453644 -1.826416,0.470974 -1.999896,0.02603 -0.431291,-1.106137 0.251013,-2.807306 1.127843,-2.812013 1.089492,-0.0058 1.720446,2.009858 0.872053,2.785966 z m -0.504997,-1.700536 c -0.138752,-0.137271 -0.316141,-0.249241 -0.394195,-0.248822 -0.233103,0.0013 -0.655783,1.214963 -0.50633,1.453906 0.211423,0.338016 0.695604,0.260436 0.931267,-0.149216 0.280888,-0.488262 0.273115,-0.755258 -0.03074,-1.055868 z m -10.876366,6.628623 c -0.274263,-0.06727 -0.768124,-0.03485 -1.09747,0.07204 -0.329347,0.106898 -1.289706,0.240271 -2.134134,0.29639 l -1.535325,0.102037 0.07693,-0.691144 c 0.04231,-0.380128 0.01521,-0.652547 -0.0602,-0.605375 -0.132959,0.08316 -1.042582,-2.399115 -1.045014,-2.851749 -6.27e-4,-0.123645 -0.149039,-0.723339 -0.329725,-1.33265 -0.375885,-1.26757 -0.499796,-1.329222 -2.9354318,-1.46053 -1.234181,-0.06654 -1.555684,-0.01628 -1.823473,0.285122 -0.355873,0.400523 -1.799475,4.149328 -1.79907,4.671903 3.13e-4,0.486306 -1.038072,2.503743 -1.289458,2.505092 -0.120133,6.27e-4 -0.582797,-0.105867 -1.028148,-0.236695 -0.623755,-0.183239 -1.00741,-0.17748 -1.670494,0.02506 -1.001484,0.305922 -1.58228397,0.02024 -0.810003,-0.398419 0.42852,-0.232306 2.418984,-0.354395 3.118873,-0.191306 0.345949,0.08062 0.752075,-0.65954 1.141243,-2.079891 0.464002,-1.693465 1.581324,-4.751162 1.834177,-5.019462 0.13238,-0.140468 0.522803,-0.276872 0.867607,-0.30312 0.778025,-0.05923 4.7021698,0.453242 4.7223478,0.61671 0.13394,1.085084 0.23454,1.564455 0.38948,1.855873 0.102867,0.19349 0.253061,0.737768 0.333756,1.209504 0.0807,0.471735 0.320068,1.407491 0.531936,2.079459 l 0.385219,1.221755 0.90905,0.05598 c 1.029879,0.06341 2.696144,-0.498912 2.693939,-0.909137 C 18.19179,21.19789 17.918026,20.341703 17.58406,19.444786 16.710991,17.100028 16.127024,15.296041 15.738313,13.742922 15.551457,12.996337 15.302963,12.05665 15.186095,11.654731 15.069227,11.252811 14.83602,10.333417 14.667849,9.611629 14.499678,8.889845 14.231359,8.044367 14.071583,7.732791 13.911807,7.421219 13.680298,6.837479 13.557116,6.435593 13.43394,6.033709 12.975687,4.597281 12.538782,3.243536 l -0.794373,-2.461353 -1.466778,0.06866 c -1.4297878,0.06694 -1.4713108,0.08452 -1.6466738,0.696978 -0.185498,0.64788 -0.425642,1.307877 -1.715324,4.714311 -0.718696,1.898292 -0.918359,2.373503 -2.11042,5.022924 -0.283522,0.630142 -0.820925,2.044557 -1.194226,3.143144 -0.3733,1.098587 -1.002203,2.713707 -1.397561,3.589149 -0.39536,0.875448 -0.973496,2.357301 -1.28475097,3.293011 -0.311253,0.935708 -0.645861,1.652472 -0.743573,1.592806 -0.44135,-0.269507 -0.09611,-1.736184 1.06430997,-4.521509 0.687258,-1.649602 1.477317,-3.688119 1.755693,-4.530037 0.278374,-0.841915 0.726409,-1.973548 0.995632,-2.51473 0.485506,-0.975956 1.060599,-2.381042 2.461225,-6.013337 C 7.0995982,3.66995 7.3765582,2.824659 8.0041522,0.616722 8.1469602,0.114325 8.2111372,0.098283 10.272101,0.04985 L 12.393085,0 12.520831,0.661331 c 0.07027,0.363733 0.662383,2.25695 1.315831,4.207152 1.191622,3.556387 1.693658,5.257744 2.457548,8.32842 0.225826,0.907765 0.536973,1.941216 0.691443,2.296561 0.154469,0.355347 0.478373,1.303737 0.719782,2.107535 0.241413,0.8038 0.685427,2.118844 0.986699,2.922322 0.690276,1.840916 0.696599,2.06428 0.05399,1.906656 z m -6.821664,-9.852186 c -0.187084,0.113217 -2.3264908,-0.244148 -2.7732678,-0.463245 -0.406115,-0.199158 -0.51963,-1.153944 -0.2488,-2.092627 0.117331,-0.406683 0.333251,-1.162717 0.47981,-1.680073 0.151114,-0.533438 0.40835,-0.968304 0.594208,-1.00453 0.4013838,-0.07823 1.3162328,1.68085 1.7798008,3.422218 0.362915,1.363278 0.392459,1.68257 0.168249,1.818257 z M 10.805062,10.131918 C 10.566341,9.373496 10.291878,8.753394 10.195141,8.753915 c -0.193623,9.41e-4 -0.6351408,1.607073 -0.6314358,2.296881 0.0022,0.422782 0.6890298,0.839544 1.3773518,0.835847 0.38908,-0.0023 0.380397,-0.11413 -0.135995,-1.754725 z"
       style="fill:#000000;stroke-width:0.313668"
       id="path1-5" />
  </g>
</svg>
