<?xml version="1.0" encoding="UTF-8" standalone="no"?>
<!-- Created with Inkscape (http://www.inkscape.org/) -->

<svg
   width="66mm"
   height="24mm"
   viewBox="0 0 66 24"
   id="SVGRoot"
   version="1.1"
   xmlns="http://www.w3.org/2000/svg"
   xmlns:svg="http://www.w3.org/2000/svg">
  <defs
     id="defs1" />
  <g
     id="layer1">
    <path
       style="fill:#64bcc0;fill-opacity:1;stroke-width:1.23075"
       d="m 7.3948832,23.102255 -0.836747,-0.839522 v -2.213701 -2.213701 l -2.217575,-2.215238 c -2.103185,-2.100968 -2.2163303,-2.207805 -2.1934408,-2.071149 0.013267,0.07925 0.061759,0.306186 0.1077521,0.504308 0.045993,0.198121 0.134799,0.506107 0.1973469,0.684416 0.062547,0.178308 0.1998527,0.502506 0.3051248,0.720438 0.105266,0.217933 0.276318,0.525919 0.3801046,0.684416 0.103789,0.158497 0.2624793,0.385434 0.3526477,0.504307 0.090165,0.118866 0.5093777,0.566142 0.9315737,0.993935 l 0.767629,0.777803 v 1.194398 c 0,0.931311 -0.01,1.194475 -0.04503,1.194752 -0.02476,1.94e-4 -0.661544,-0.619832 -1.415064,-1.377837 C 2.8202995,18.515563 2.2703885,17.93274 2.0954093,17.6983 1.9503433,17.50394 1.7448649,17.206682 1.6387903,17.037724 1.532712,16.868769 1.3575432,16.557706 1.2495179,16.34647 1.1414951,16.135237 1.0013239,15.832732 0.93803262,15.674236 c -0.0632851,-0.158498 -0.1542806,-0.409751 -0.2021973,-0.558341 -0.0479131,-0.148589 -0.1262342,-0.424159 -0.1740365,-0.612373 -0.0478023,-0.188215 -0.1122074,-0.488097 -0.1431165,-0.666404 -0.0309164,-0.17831 -0.075691,-0.579502 -0.099506,-0.891541 -0.03371,-0.4416 -0.033722,-0.693091 -6.65e-5,-1.134692 0.023778,-0.312039 0.066104,-0.697023 0.094054,-0.85552 0.02795,-0.158496 0.086879,-0.442169 0.1309492,-0.630383 0.044073,-0.188215 0.1518165,-0.5529366 0.2394261,-0.8104931 C 0.87114382,9.2569313 1.0306046,8.8627899 1.1378865,8.6386176 1.2451709,8.4144454 1.4178364,8.090248 1.5215947,7.9181792 1.6253591,7.7461103 1.7484562,7.5485922 1.7951557,7.4792499 1.8418503,7.4099083 1.9802998,7.2197736 2.1028098,7.0567296 2.2253185,6.8936857 2.3418015,6.7599543 2.3616584,6.7595488 2.3815104,6.7591432 3.7310382,8.0921606 5.3605972,9.7218099 l 2.962834,2.9629981 -0.0091,5.616223 c -0.0061,3.781805 -0.02113,5.620228 -0.04591,5.628482 -0.02023,0.0068 -0.413321,-0.365523 -0.873531,-0.827259 z M 6.5581362,14.332546 V 13.369085 L 4.6400952,11.450791 C 3.5851722,10.39573 2.7038756,9.5324997 2.6816593,9.5324997 c -0.022215,0 -0.1009952,0.1580467 -0.1750519,0.351214 -0.074066,0.1931673 -0.1763134,0.5185143 -0.227227,0.7229953 l -0.092577,0.371781 2.1585338,2.158759 c 1.187193,1.187316 2.170741,2.158759 2.185663,2.158759 0.01492,0 0.02713,-0.433558 0.02713,-0.963462 z m 3.169928,3.963157 V 12.65014 l 0.8203698,-0.820371 c 0.451204,-0.451204 0.840241,-0.82037 0.864526,-0.82037 0.03462,0 0.04416,0.945416 0.04416,4.376663 0,2.407163 0.01232,4.376662 0.02737,4.376662 0.01505,0 0.331147,-0.30409 0.702427,-0.675758 l 0.675056,-0.675757 v -1.114746 -1.114747 l 0.824325,-0.826542 c 0.597199,-0.598805 0.840365,-0.820389 0.882538,-0.804206 0.05274,0.02023 0.05821,0.232697 0.05821,2.258617 0,1.871727 -0.0084,2.252134 -0.05161,2.333548 -0.02838,0.0535 -1.110681,1.154966 -2.405109,2.447702 -1.294427,1.292737 -2.3734748,2.350431 -2.3978858,2.350431 -0.03498,0 -0.04438,-1.196859 -0.04438,-5.645564 z m 6.2674548,-3.513011 c -2.78e-4,-2.097224 -0.01194,-2.812547 -0.05127,-3.160923 -0.028,-0.24765 -0.08407,-0.597788 -0.124601,-0.778084 -0.04053,-0.180294 -0.116675,-0.463879 -0.169211,-0.630186 -0.05254,-0.166307 -0.133195,-0.3875677 -0.179244,-0.4916903 -0.04604,-0.1041214 -0.09708,-0.1893115 -0.113401,-0.1893115 -0.01632,0 -0.186868,0.1580468 -0.378992,0.351214 l -0.349317,0.3512138 -0.01022,1.125636 -0.01022,1.125636 -0.833318,0.83327 c -0.490307,0.490279 -0.84987,0.823039 -0.873531,0.808415 -0.02892,-0.01787 -0.04021,-0.66889 -0.04021,-2.3186 V 9.5155338 l 1.378361,-1.3783609 c 0.758099,-0.7580988 1.396993,-1.3783613 1.419764,-1.3783613 0.02277,0 0.121869,0.1013115 0.220203,0.2251369 0.09834,0.1238255 0.286904,0.3870269 0.41903,0.5848925 0.132127,0.1978654 0.345592,0.5669602 0.474367,0.8202107 0.128776,0.2532506 0.291952,0.6100764 0.362615,0.7929466 0.07066,0.1828697 0.173549,0.4788243 0.22864,0.6576767 0.05509,0.178853 0.135493,0.494944 0.178675,0.702427 0.04319,0.207482 0.101327,0.547444 0.129205,0.755471 0.02823,0.210634 0.051,0.682108 0.0514,1.064013 3.92e-4,0.381919 -0.02213,0.869848 -0.05083,1.10119 -0.02834,0.228472 -0.09473,0.608028 -0.147537,0.843458 -0.0528,0.235431 -0.152957,0.599019 -0.222566,0.807974 -0.06961,0.208956 -0.167008,0.477178 -0.216442,0.596048 -0.04944,0.118878 -0.139998,0.321497 -0.201252,0.450275 -0.06126,0.128779 -0.199476,0.388136 -0.307163,0.57635 -0.107691,0.188214 -0.26085,0.435418 -0.340364,0.549336 -0.07952,0.113919 -0.166536,0.207126 -0.193384,0.207126 -0.04064,0 -0.04887,-0.454187 -0.04917,-2.710648 z m 35.59797,-2.767941 c -0.183841,-0.03861 -0.477163,-0.131801 -0.651827,-0.207103 -0.174664,-0.0753 -0.4376,-0.216619 -0.584303,-0.314036 -0.146703,-0.09741 -0.396411,-0.309072 -0.554906,-0.470343 -0.160406,-0.163211 -0.36522,-0.421272 -0.461944,-0.582034 -0.09557,-0.15885 -0.213789,-0.387901 -0.262705,-0.5090052 -0.04891,-0.1211057 -0.12316,-0.3456854 -0.16499,-0.4990737 -0.06009,-0.220346 -0.07666,-0.3885262 -0.07897,-0.8012046 -0.0021,-0.3821089 0.01399,-0.5925147 0.0601,-0.7838208 0.03466,-0.1438267 0.112589,-0.3869746 0.173176,-0.5403289 0.06059,-0.1533543 0.185548,-0.4003998 0.277687,-0.5489902 0.09213,-0.1485905 0.294048,-0.4020471 0.448689,-0.5632369 0.154641,-0.1611899 0.390123,-0.3658595 0.523293,-0.4548216 0.13317,-0.088962 0.342684,-0.2122369 0.465587,-0.2739443 0.122902,-0.061707 0.358054,-0.1511994 0.52256,-0.1988711 0.164505,-0.047672 0.457037,-0.1065558 0.650071,-0.130853 0.27508,-0.034625 0.425414,-0.034807 0.695227,-8.456e-4 0.18934,0.023832 0.458041,0.074863 0.597113,0.1134024 0.139072,0.038539 0.358064,0.1177729 0.486649,0.1760768 0.128585,0.058303 0.346386,0.1808582 0.483999,0.2723442 0.137615,0.091486 0.342059,0.2500592 0.454318,0.3523848 0.112257,0.1023257 0.295492,0.3090604 0.40718,0.4594104 0.11169,0.1503501 0.271995,0.4144423 0.356236,0.5868718 0.08425,0.1724295 0.193624,0.4708723 0.243073,0.6632063 0.07092,0.2758241 0.09057,0.4448189 0.09307,0.7999722 0.0017,0.2476507 -0.01655,0.5475332 -0.04064,0.6664051 -0.02409,0.118878 -0.07745,0.3214962 -0.11857,0.4502742 -0.04112,0.1287782 -0.122977,0.3314017 -0.181904,0.4502757 -0.05893,0.118878 -0.171959,0.31339 -0.251192,0.432262 -0.07923,0.118878 -0.251641,0.326922 -0.383131,0.462331 -0.131489,0.135409 -0.33633,0.315962 -0.455203,0.401227 -0.118878,0.08527 -0.3296,0.214111 -0.468284,0.286321 -0.138685,0.07221 -0.381833,0.170637 -0.54033,0.218723 -0.158496,0.04809 -0.393539,0.104158 -0.522318,0.124608 -0.128778,0.02044 -0.38003,0.03615 -0.55834,0.03489 -0.178308,-0.0012 -0.474612,-0.03387 -0.658453,-0.07248 z m 1.331135,-1.365411 c 0.112417,-0.03462 0.30776,-0.120761 0.434094,-0.191404 0.126334,-0.07064 0.315218,-0.212638 0.419742,-0.315527 0.104527,-0.10289 0.244916,-0.2700514 0.311982,-0.3714738 0.06706,-0.101426 0.166214,-0.2978721 0.22033,-0.4365566 0.08886,-0.2277095 0.09851,-0.2975476 0.09962,-0.7204381 10e-4,-0.3975567 -0.01108,-0.502771 -0.08047,-0.6966133 C 54.284999,7.7917466 54.183216,7.5860358 54.103739,7.460192 54.024261,7.3343482 53.862888,7.1421858 53.745132,7.0331645 53.627377,6.9241431 53.413439,6.7774547 53.269716,6.7071901 53.125994,6.6369257 52.903892,6.5531997 52.776158,6.5211323 52.612305,6.4799982 52.442574,6.467415 52.199806,6.4784031 c -0.248952,0.011274 -0.417625,0.041685 -0.609976,0.1099994 -0.14623,0.051933 -0.349432,0.149904 -0.451558,0.2177128 -0.102128,0.067808 -0.277839,0.2176726 -0.390471,0.3330308 -0.126905,0.1299783 -0.260616,0.3201491 -0.351598,0.5000602 -0.09932,0.196409 -0.164402,0.3893598 -0.20119,0.5965043 -0.03478,0.1958241 -0.04607,0.3905809 -0.03133,0.5403289 0.01268,0.1287783 0.06343,0.3557162 0.112785,0.504307 0.04935,0.1485908 0.123731,0.3268991 0.165278,0.3962408 0.04155,0.06934 0.145892,0.2099436 0.231878,0.3124478 0.08598,0.1025089 0.233137,0.2425279 0.327001,0.3111639 0.09387,0.06864 0.227398,0.156421 0.296741,0.195077 0.06934,0.03866 0.213402,0.09925 0.320134,0.134641 0.106731,0.0354 0.276935,0.077 0.37823,0.09244 0.101291,0.01545 0.305746,0.01951 0.454337,0.009 0.148591,-0.01046 0.362143,-0.04741 0.474561,-0.08203 z m -26.846876,1.252395 c -0.0023,-0.02521 -0.0018,-0.06539 0.0012,-0.08932 0.0031,-0.02391 0.192946,-0.461585 0.422055,-0.972592 0.229107,-0.511005 0.445781,-0.9939404 0.481494,-1.0731883 0.03572,-0.079248 0.141357,-0.3142916 0.23476,-0.5223177 0.0934,-0.2080271 0.303852,-0.6781132 0.467666,-1.0446362 0.163813,-0.3665231 0.511428,-1.1445966 0.772477,-1.7290524 0.261049,-0.5844556 0.498354,-1.0991189 0.527343,-1.143696 0.05158,-0.079322 0.06719,-0.08105 0.731882,-0.08105 0.501133,0 0.688117,0.011803 0.713285,0.045027 0.01876,0.024765 0.07581,0.1422866 0.126777,0.261159 0.05097,0.1188719 0.31447,0.7105323 0.585564,1.3148001 0.271093,0.6042678 0.696289,1.5525449 0.944878,2.1072825 0.248589,0.5547375 0.636325,1.421367 0.861635,1.925844 0.22531,0.504477 0.409655,0.946195 0.409655,0.981598 0,0.05954 -0.05113,0.06437 -0.681801,0.06437 h -0.6818 l -0.08856,-0.189115 c -0.04871,-0.104011 -0.121315,-0.26206 -0.161349,-0.351214 -0.04004,-0.08916 -0.116146,-0.259358 -0.169142,-0.37823 -0.053,-0.118866 -0.234852,-0.532224 -0.404128,-0.918559 C 31.002388,9.7225151 30.628979,8.8633924 30.341865,8.1996884 30.054751,7.5359845 29.801979,6.9483769 29.780149,6.8938938 c -0.02183,-0.054483 -0.04975,-0.099061 -0.06203,-0.099061 -0.01231,0 -0.04303,0.044576 -0.06831,0.099061 -0.02528,0.054483 -0.220894,0.5043069 -0.434705,0.9996083 -0.213809,0.4953014 -0.525955,1.2166402 -0.693656,1.602976 -0.167701,0.3863347 -0.351566,0.8072679 -0.408588,0.9354049 -0.05702,0.12814 -0.233726,0.517176 -0.392676,0.864526 l -0.289,0.631547 -0.674587,0.0098 c -0.525301,0.0076 -0.675531,-3.4e-4 -0.678855,-0.03602 z m 9.567109,0.0066 c -0.01279,-0.02069 0.0054,-0.08148 0.04043,-0.135082 0.03501,-0.05361 0.314804,-0.445988 0.621748,-0.871948 0.306944,-0.42596 0.800014,-1.1119051 1.095711,-1.5243255 0.341842,-0.476777 0.531673,-0.7726449 0.521268,-0.8124366 -0.009,-0.03442 -0.493481,-0.7263125 -1.076622,-1.5375378 -0.583141,-0.8112255 -1.0961,-1.5260872 -1.13991,-1.5885818 -0.04382,-0.062495 -0.07965,-0.1313865 -0.07965,-0.1530931 0,-0.02728 0.220319,-0.039466 0.713458,-0.039466 h 0.713457 l 0.787244,1.0990649 c 0.432984,0.6044857 0.809344,1.1174063 0.836356,1.1398237 0.02701,0.022417 0.05508,0.034396 0.06235,0.02662 0.0073,-0.00778 0.349835,-0.4842248 0.761225,-1.0587744 0.411391,-0.5745497 0.773815,-1.0805986 0.805387,-1.1245531 0.05593,-0.077863 0.0758,-0.079947 0.773037,-0.08105 0.671205,-0.00106 0.714584,0.00289 0.69871,0.063587 -0.0094,0.035596 -0.313898,0.4773143 -0.676866,0.9815973 -0.362968,0.5042832 -0.875958,1.2185018 -1.139978,1.5871526 -0.26402,0.3686508 -0.480036,0.6883618 -0.480036,0.7104687 0,0.022107 0.264639,0.4094029 0.588088,0.8606578 0.323449,0.4512538 0.842165,1.1729253 1.152701,1.6037113 0.310538,0.430788 0.564614,0.80801 0.564614,0.838272 0,0.04781 -0.09307,0.05375 -0.710967,0.04525 l -0.710965,-0.0097 -0.336275,-0.468284 C 39.84442,11.202087 39.473111,10.685226 39.204241,10.311063 l -0.488858,-0.6802956 -0.0663,0.085931 c -0.03647,0.047261 -0.385205,0.5317056 -0.774978,1.0765376 -0.389772,0.544831 -0.741369,1.027075 -0.781328,1.071652 -0.07045,0.07859 -0.09316,0.08104 -0.748662,0.08104 -0.430801,0 -0.684441,-0.01364 -0.699254,-0.03761 z m 8.905219,0.01441 c -0.01366,-0.01366 -0.02484,-1.521547 -0.02484,-3.3508606 V 5.2459093 h 0.648581 0.648581 l -0.0092,3.3410332 -0.0092,3.3410335 -0.614552,0.0098 c -0.338005,0.0054 -0.62573,-0.0014 -0.63939,-0.015 z m 14.08244,-0.05786 c -0.01194,-0.04458 -0.02195,-1.52074 -0.02222,-3.2803638 -3.28e-4,-2.1374097 0.01194,-3.2224402 0.0368,-3.2689895 0.03489,-0.06519 0.08203,-0.069675 0.73217,-0.069675 0.675024,0 0.696962,0.00231 0.767712,0.08105 0.04006,0.044578 0.44311,0.59166 0.895674,1.2157399 0.452563,0.6240798 0.886421,1.22157 0.964128,1.327756 0.137014,0.1872297 0.143234,0.1910406 0.205813,0.1260767 0.03549,-0.036844 0.336185,-0.4398156 0.668212,-0.895493 0.332025,-0.4556773 0.750162,-1.0303028 0.929192,-1.2769455 0.179031,-0.2466428 0.354702,-0.4776334 0.39038,-0.5133124 0.05788,-0.05788 0.137861,-0.06487 0.742084,-0.06487 0.478691,0 0.689884,0.012672 0.720438,0.043226 0.03298,0.032984 0.04322,0.816497 0.04322,3.3068125 0,2.4903141 -0.01021,3.2738261 -0.04322,3.3068111 -0.03016,0.03017 -0.224803,0.04322 -0.644193,0.04322 -0.592775,0 -0.601263,-0.0011 -0.622688,-0.08104 -0.01194,-0.04458 -0.02194,-1.108966 -0.02222,-2.3653081 L 64.373315,7.2153706 63.326959,8.6100754 62.280603,10.00478 62.129861,9.9938264 61.979119,9.9828727 61.357533,9.1363577 C 61.015664,8.670675 60.561504,8.0547002 60.348292,7.7674254 l -0.387658,-0.522318 -0.0092,2.3020357 c -0.0065,1.6274659 -0.02105,2.3162169 -0.04944,2.3504309 -0.0307,0.03698 -0.182457,0.04839 -0.643925,0.04839 -0.595672,0 -0.604052,-0.0011 -0.625482,-0.08104 z M 6.1894532,8.5692272 C 4.6487682,7.0290125 3.3882065,5.7441908 3.3882065,5.7140676 c 0,-0.030123 0.2554897,-0.3098845 0.5677547,-0.6216922 0.312265,-0.3118077 0.591936,-0.5669231 0.62149,-0.5669231 0.02955,0 1.034331,0.9806969 2.232838,2.1793263 1.198506,1.1986295 2.195413,2.1793263 2.215348,2.1793263 0.01994,0 1.0168408,-0.9806968 2.2153478,-2.1793263 1.198506,-1.1986294 2.204128,-2.1793263 2.234713,-2.1793263 0.03058,0 0.310256,0.2564492 0.62149,0.5698873 0.311233,0.3134379 0.565879,0.592814 0.565879,0.6208357 0,0.028022 -1.260175,1.3115096 -2.80039,2.8521953 -1.540215,1.5406854 -2.8164968,2.8012474 -2.8361828,2.8012474 -0.01969,0 -1.296355,-1.260176 -2.837041,-2.8003908 z M 7.2690512,5.2179805 C 6.3431212,4.2912751 5.5855442,3.518433 5.5855442,3.5005537 c 0,-0.017879 0.247199,-0.28213 0.549333,-0.5872233 0.302135,-0.3050935 0.579906,-0.5714325 0.61727,-0.5918648 0.05909,-0.032313 0.210241,0.1050974 1.161059,1.055533 l 1.093123,1.0926822 0.168304,-0.1612294 c 0.09257,-0.088675 0.587033,-0.5786333 1.0988128,-1.0887938 0.511778,-0.5101604 0.951656,-0.9275644 0.977504,-0.9275644 0.02585,0 0.301645,0.2564492 0.612879,0.5698871 0.311233,0.3134379 0.565879,0.5931228 0.565879,0.6215219 0,0.028399 -0.757875,0.8093813 -1.684167,1.7355158 -0.9262908,0.9261347 -1.7086498,1.6838812 -1.7385748,1.6838812 -0.02992,0 -0.811986,-0.7582134 -1.737915,-1.6849187 z m 1.134798,-3.3315316 c -0.32172,-0.3221646 -0.584946,-0.6024254 -0.584946,-0.6228018 0,-0.020376 0.264521,-0.29981772 0.587824,-0.62098057 0.323304,-0.32116284 0.602744,-0.58393256 0.62098,-0.58393256 0.01824,0 0.296746,0.26322608 0.618911,0.58494682 0.322164,0.32172075 0.5857528,0.60023011 0.5857528,0.61890981 0,0.018679 -0.2627688,0.2984839 -0.5839328,0.6217876 -0.321163,0.3233034 -0.600966,0.5878245 -0.621787,0.5878245 -0.02082,0 -0.301081,-0.2635891 -0.622802,-0.5857538 z"
       id="path1" />
    <path
       d="m 21.443667,23.952078 c -0.03345,-0.03345 -0.04322,-2.737667 -0.04322,-11.952071 0,-9.2144087 0.0097,-11.91862875 0.04322,-11.95207475 0.02604,-0.02604 0.152092,-0.04323 0.316993,-0.04323 0.1649,0 0.290956,0.01719 0.316993,0.04323 0.03344,0.03345 0.04322,2.73766595 0.04322,11.95207475 0,9.214404 -0.0097,11.918625 -0.04322,11.952071 -0.02604,0.02604 -0.152093,0.04322 -0.316993,0.04322 -0.164901,0 -0.290957,-0.01719 -0.316993,-0.04322 z m 7.221194,-5.059879 c -0.01321,-0.01321 -0.02401,-0.98549 -0.02401,-2.160627 v -2.136613 l 0.08104,-0.02022 c 0.04458,-0.01108 0.243148,-0.01548 0.441269,-0.0097 l 0.36022,0.01059 0.0096,0.891542 0.0096,0.891543 h 1.007356 1.007356 l 0.0096,-0.891543 0.0096,-0.891542 h 0.414252 0.414252 v 2.161315 2.161313 h -0.41411 -0.414252 l -0.0097,-0.83751 -0.0097,-0.837507 h -1.007995 -1.007951 v 0.789534 c 0,0.434245 -0.0098,0.815177 -0.02186,0.846515 -0.01814,0.04727 -0.09073,0.05698 -0.426261,0.05698 -0.222417,0 -0.4152,-0.01083 -0.428409,-0.02401 z m 6.585746,-0.05703 c -0.01083,-0.04458 -0.01516,-1.021219 -0.0097,-2.170319 l 0.01,-2.089271 1.598829,-0.0094 c 1.150472,-0.0068 1.612618,0.0021 1.648004,0.03143 0.03535,0.02934 0.04917,0.138796 0.04917,0.389415 0,0.223107 -0.01556,0.364166 -0.04322,0.39183 -0.03184,0.03184 -0.350059,0.04322 -1.207842,0.04322 h -1.164617 l 0.01009,0.441269 0.01009,0.441268 1.13469,0.01801 1.13469,0.01801 v 0.396243 0.396239 l -1.143695,0.0095 -1.143696,0.0095 v 0.431757 0.431755 h 1.163507 c 0.856923,0 1.174899,0.01145 1.206735,0.04322 0.02769,0.02769 0.04322,0.169049 0.04322,0.393294 0,0.192538 -0.0098,0.375709 -0.02187,0.407048 -0.01948,0.05078 -0.197553,0.05698 -1.638311,0.05698 h -1.616446 z m 5.565651,0.0081 c 0,-0.0413 0.03394,-0.151204 0.07545,-0.244224 0.0415,-0.09302 0.112539,-0.250178 0.157879,-0.349236 0.04534,-0.09906 0.11878,-0.26116 0.163211,-0.360219 0.04443,-0.09906 0.11745,-0.261161 0.162284,-0.360219 0.04484,-0.09906 0.113894,-0.253055 0.153484,-0.342208 0.03958,-0.08916 0.104392,-0.235044 0.144019,-0.324196 0.03963,-0.08915 0.104466,-0.235043 0.144087,-0.324198 0.03963,-0.08916 0.108122,-0.243148 0.152224,-0.342209 0.0441,-0.09906 0.120749,-0.269263 0.170321,-0.37823 0.04957,-0.108971 0.12881,-0.283222 0.176076,-0.387235 0.04726,-0.104011 0.126949,-0.282322 0.177078,-0.396241 0.05013,-0.113918 0.119813,-0.263861 0.15485,-0.333204 l 0.0637,-0.126076 h 0.466527 0.466528 l 0.09005,0.182393 c 0.04953,0.100318 0.133643,0.278626 0.186919,0.396241 0.05328,0.11761 0.136561,0.303002 0.185081,0.411969 0.04852,0.10897 0.122447,0.275118 0.164295,0.369224 0.04185,0.0941 0.110349,0.248101 0.152224,0.342209 0.04188,0.0941 0.10854,0.244049 0.148122,0.333203 0.03958,0.08916 0.108651,0.243148 0.153483,0.342207 0.04482,0.09906 0.117857,0.261159 0.162284,0.36022 0.04443,0.09906 0.117869,0.261158 0.163211,0.360219 0.04534,0.09906 0.114534,0.253054 0.153777,0.342206 0.03924,0.08916 0.107162,0.243149 0.150943,0.342208 0.04378,0.09906 0.102361,0.227177 0.13018,0.284704 0.02781,0.05753 0.05058,0.143112 0.05058,0.190191 v 0.0856 l -0.452613,-0.01009 c -0.440403,-0.0098 -0.45399,-0.01252 -0.503688,-0.100134 -0.02809,-0.04953 -0.09999,-0.199879 -0.159761,-0.334105 -0.05978,-0.134227 -0.108687,-0.258121 -0.108687,-0.275315 0,-0.01719 -0.02564,-0.04111 -0.05698,-0.05313 -0.03133,-0.01206 -0.531476,-0.02186 -1.111417,-0.02186 h -1.054431 l -0.104318,0.240688 c -0.05738,0.132377 -0.136924,0.306634 -0.176767,0.387235 l -0.07244,0.146548 -0.45888,0.01009 c -0.444307,0.0097 -0.458879,0.0078 -0.458879,-0.06502 z m 3.061862,-1.597675 c 0,-0.0075 -0.02599,-0.07638 -0.05776,-0.153094 -0.03177,-0.07671 -0.09032,-0.212425 -0.13011,-0.301579 -0.03979,-0.08916 -0.11105,-0.247681 -0.158368,-0.35228 -0.04731,-0.104601 -0.08602,-0.197326 -0.08602,-0.20606 0,-0.0087 -0.04057,-0.104553 -0.09014,-0.212936 -0.04957,-0.10838 -0.10801,-0.242596 -0.129861,-0.298249 l -0.03973,-0.101179 -0.04955,0.10806 c -0.02725,0.05943 -0.08858,0.19722 -0.13627,0.306186 -0.04769,0.10897 -0.122669,0.279169 -0.166599,0.37823 -0.04394,0.09906 -0.100602,0.228739 -0.125919,0.288175 -0.02532,0.05943 -0.08034,0.184888 -0.122275,0.278777 -0.04193,0.09389 -0.07623,0.195204 -0.07623,0.225137 0,0.04665 0.09787,0.05442 0.684417,0.05442 0.376428,0 0.684416,-0.0062 0.684416,-0.01361 z m 4.196389,1.589959 c -0.01083,-0.04479 -0.01526,-1.021608 -0.0098,-2.170708 l 0.01,-2.08927 0.409097,-0.01022 c 0.270787,-0.0068 0.426062,0.0038 0.459279,0.03142 0.04162,0.03453 0.05019,0.335943 0.05019,1.765752 v 1.724105 l 1.071653,0.0096 1.071651,0.0096 v 0.39624 0.396242 l -1.521142,0.0094 -1.521142,0.0094 z m 6.19979,0.02368 c -0.01206,-0.03133 -0.02186,-0.825621 -0.02186,-1.765072 v -1.708093 l -0.621378,-5.53e-4 c -0.341758,-3.03e-4 -0.642238,-0.01378 -0.667733,-0.02997 -0.03409,-0.02162 -0.04362,-0.128715 -0.03602,-0.404695 l 0.01034,-0.375283 1.711041,-0.01 c 0.941073,-0.0055 1.747514,-0.0011 1.79209,0.0097 0.07718,0.01874 0.08104,0.03648 0.08104,0.372008 0,0.226004 -0.0155,0.367826 -0.04322,0.395555 -0.03029,0.03029 -0.22974,0.04322 -0.666405,0.04322 h -0.623187 v 1.721787 c 0,1.291187 -0.01083,1.73266 -0.04322,1.765073 -0.02847,0.02847 -0.180854,0.04322 -0.44642,0.04322 -0.33443,0 -0.406922,-0.0097 -0.425059,-0.05698 z m 4.822052,0.01311 c -0.0097,-0.0254 -0.01345,-1.002558 -0.0084,-2.171468 l 0.0094,-2.125293 0.360219,-0.01058 c 0.19812,-0.0058 0.396692,-0.0015 0.441268,0.0097 l 0.08105,0.02022 v 0.881852 0.881851 h 0.990603 0.990603 v -0.857288 c 0,-0.618776 0.01206,-0.869348 0.04322,-0.900546 0.02827,-0.02827 0.177427,-0.04322 0.430996,-0.04322 0.346508,0 0.391736,0.0074 0.425058,0.06967 0.02444,0.04567 0.03729,0.772331 0.03729,2.10965 0,1.337318 -0.01285,2.063973 -0.03729,2.109649 -0.03351,0.06261 -0.07879,0.06967 -0.446421,0.06967 -0.339843,0 -0.412832,-0.0096 -0.430994,-0.05698 -0.01206,-0.03133 -0.02187,-0.412269 -0.02187,-0.846515 v -0.789534 h -0.989955 -0.989939 l -0.0097,0.837507 -0.0097,0.837509 -0.423948,0.01022 c -0.319119,0.0076 -0.428314,-0.0012 -0.44161,-0.03602 z m -30.51602,-7.623401 c 0.01132,-0.05647 0.06014,-0.1902 0.10854,-0.297182 0.0484,-0.106977 0.120392,-0.267454 0.159976,-0.356608 0.03958,-0.08916 0.107949,-0.243147 0.151923,-0.342209 0.04397,-0.09906 0.100626,-0.228738 0.125907,-0.2881747 0.02528,-0.05943 0.07045,-0.164801 0.100379,-0.234143 0.02993,-0.06934 0.09665,-0.223336 0.14827,-0.342208 0.05162,-0.118878 0.114152,-0.255357 0.13897,-0.303299 0.02481,-0.04794 0.06532,-0.09385 0.08999,-0.102013 0.02709,-0.009 0.09489,0.09344 0.171105,0.258424 0.06943,0.150298 0.126226,0.280825 0.126226,0.290059 0,0.0092 0.03867,0.102372 0.08593,0.206973 0.04726,0.104602 0.128314,0.2838707 0.180109,0.3983777 0.0518,0.114509 0.09418,0.215337 0.09418,0.224069 0,0.0087 0.04053,0.105512 0.09005,0.215064 0.04953,0.109548 0.130579,0.288823 0.18011,0.398377 0.04953,0.109549 0.09005,0.239234 0.09005,0.288176 v 0.08898 h -1.031121 -1.031128 z"
       style="fill:#47575f;fill-opacity:1;stroke-width:1.23075"
       id="path1-1" />
  </g>
</svg>
