<?xml version="1.0" encoding="UTF-8" standalone="no"?>
<!-- Created with Inkscape (http://www.inkscape.org/) -->

<svg
   width="79mm"
   height="24mm"
   viewBox="0 0 79 24"
   id="SVGRoot"
   version="1.1"
   xmlns="http://www.w3.org/2000/svg"
   xmlns:svg="http://www.w3.org/2000/svg">
  <defs
     id="defs1" />
  <g
     id="layer1">
    <path
       d="m 69.214947,14.791041 c -0.08723,0.5375 -0.205282,1.024458 -0.26234,1.082137 -0.05706,0.05768 -0.366216,0.01496 -0.687017,-0.09496 -0.759813,-0.260304 -1.641493,-0.08823 -2.205534,0.43043 -0.490194,0.450758 -0.562981,1.022709 -0.237397,1.865411 0.198233,0.513077 0.263887,0.535238 1.311588,0.442686 0.653762,-0.05776 1.103342,-0.01641 1.103977,0.101547 6.04e-4,0.109438 0.242775,0.512364 0.538195,0.895396 0.732029,0.949128 0.509282,1.569663 -0.827304,2.304726 -0.880589,0.484285 -1.164301,0.540001 -2.376513,0.466701 -1.643546,-0.09938 -1.711717,-0.133238 -2.590495,-1.286723 -1.102334,-1.446918 -1.311142,-2.568436 -0.842915,-4.527351 0.27409,-1.146708 1.122155,-2.96579 1.574318,-3.376883 0.633059,-0.575553 1.949055,-0.958446 2.7072,-0.787666 1.830861,0.412423 3.055439,0.991766 2.972902,1.40647 -0.01108,0.05545 -0.09143,0.540587 -0.178665,1.078084 z m -1.6579,-1.654197 c -0.729987,-0.298782 -1.080518,-0.360458 -1.133246,-0.199396 -0.05546,0.169408 -0.119223,0.164637 -0.233105,-0.01744 -0.218095,-0.348683 -1.040245,-0.103659 -1.788818,0.533123 -1.151235,0.979303 -2.151343,3.684726 -1.880486,5.086942 0.146152,0.756614 1.170387,2.643313 1.575643,2.902424 0.126232,0.08071 0.863962,0.14439 1.639405,0.141508 1.054035,-0.0039 1.574563,-0.106857 2.06233,-0.407864 0.731499,-0.451408 0.793043,-0.757969 0.329709,-1.642296 -0.307532,-0.586954 -0.355715,-0.604314 -1.301704,-0.469027 l -0.982352,0.140486 -0.316151,-0.74538 c -0.173885,-0.40996 -0.317989,-1.087463 -0.320236,-1.505566 -0.0058,-1.08877 1.04654,-2.016055 2.295656,-2.022763 0.901729,-0.0048 1.071554,-0.149752 1.096644,-0.935761 0.01051,-0.329862 -0.225692,-0.524355 -1.043289,-0.858996 z m -7.712236,8.412523 c -0.730788,0.250385 -2.061745,0.928895 -2.170062,1.106278 -0.188944,0.309417 -0.698123,0.209125 -0.832714,-0.164018 -0.06979,-0.19349 -0.26255,-0.508128 -0.42835,-0.699198 -0.28255,-0.325605 -0.359494,-0.305671 -1.226535,0.317759 -1.717935,1.235247 -2.946142,1.779957 -4.12832,1.830906 -0.907293,0.03911 -1.190138,-0.03211 -1.552998,-0.391022 -0.605108,-0.598526 -0.749963,-2.290901 -0.311214,-3.635956 0.70854,-2.172128 3.972747,-6.516871 4.899872,-6.521846 0.157791,-9.07e-4 0.444471,-0.145695 0.637067,-0.321883 0.202155,-0.184929 0.76145,-0.336928 1.323138,-0.359582 l 0.972965,-0.03925 0.428842,1.206199 c 0.235867,0.66341 0.48172,1.34187 0.546344,1.507692 0.369911,0.949167 0.96818,2.855592 0.969434,3.089174 9.06e-4,0.150112 0.27509,0.8054 0.609516,1.456195 0.71322,1.38792 0.724976,1.460266 0.263015,1.618546 z m -1.086686,-1.860714 c -0.109255,-0.130215 -0.240157,-0.449713 -0.290892,-0.709997 -0.08193,-0.420316 -0.335762,-1.511574 -0.414208,-1.780724 -0.111481,-0.382486 -0.365074,-0.988576 -0.616432,-1.473284 -0.162188,-0.312749 -0.295801,-0.739485 -0.296921,-0.948302 -0.0013,-0.208817 -0.158916,-0.704145 -0.350653,-1.100727 -0.444361,-0.919097 -0.907198,-0.832976 -2.165216,0.402882 -0.498412,0.489634 -0.961295,0.80217 -1.028626,0.694524 -0.178398,-0.285223 -1.173352,0.748749 -2.188575,2.274411 -1.789304,2.688943 -2.328259,4.626386 -1.594758,5.732844 0.270771,0.408449 0.49683,0.50174 1.206554,0.497927 1.361097,-0.0073 4.541918,-1.881067 4.845006,-2.854096 0.166666,-0.535065 0.643144,-0.502825 0.802427,0.0543 0.21812,0.762911 0.5687,1.356735 0.797515,1.350859 0.11974,-0.0031 0.60149,-0.182294 1.070559,-0.398263 0.811688,-0.373711 0.842476,-0.419524 0.637859,-0.94913 -0.118247,-0.306054 -0.304384,-0.663001 -0.413639,-0.793218 z m -3.972422,-0.523739 c -1.512501,1.575366 -2.868344,0.623025 -1.445418,-1.01526 0.523073,-0.602238 0.768573,-0.729125 1.417426,-0.732609 0.69222,-0.0038 0.785086,0.05231 0.787355,0.475024 0.0015,0.282365 -0.310435,0.805261 -0.759363,1.272845 z m -0.543966,-1.140851 c -0.16332,9.07e-4 -0.436093,0.274257 -0.60616,0.607508 -0.268104,0.525345 -0.269879,0.605698 -0.01335,0.60432 0.284293,-0.0015 0.919036,-0.732818 0.917296,-1.056824 -6.04e-4,-0.08613 -0.134465,-0.15588 -0.297786,-0.155004 z m -7.047316,-1.976326 c -0.881281,0.0048 -1.167945,0.191562 -1.240976,0.80879 -0.01991,0.168223 -0.221664,1.213232 -0.448357,2.322239 -0.226694,1.10901 -0.411782,2.247508 -0.411308,2.52999 0.0013,0.661086 -0.342318,0.998851 -1.019282,1.002486 -0.296644,0.0015 -0.870888,0.143516 -1.276099,0.315387 -0.40521,0.171868 -0.808729,0.268531 -0.89671,0.214804 -0.161743,-0.09876 -0.152461,-0.997333 0.05257,-5.091065 l 0.113023,-2.256574 -1.273077,-0.0535 -1.27308,-0.05349 0.0034,-1.20852 0.0034,-1.208519 0.946484,-0.06647 c 1.044275,-0.07334 1.296132,0.236598 0.350276,0.431058 -0.417259,0.08578 -0.635236,0.273893 -0.720582,0.621848 -0.187396,0.763992 0.0422,0.923705 1.31806,0.916856 1.400027,-0.0075 1.459176,0.08078 1.232399,1.839605 -0.09053,0.702144 -0.190116,2.183134 -0.221297,3.291093 l -0.05671,2.014475 0.503146,-0.07411 c 0.976712,-0.143846 1.557516,-0.595643 1.658919,-1.290446 0.05312,-0.363962 0.244558,-1.387641 0.425425,-2.274846 0.180869,-0.887206 0.276251,-1.946574 0.211963,-2.35415 -0.127529,-0.808536 -0.107119,-0.825113 1.341915,-1.089959 l 0.754571,-0.137912 -0.0058,-1.085348 c -0.0048,-0.893163 -0.06826,-1.087901 -0.358385,-1.099789 -0.193904,-0.008 -0.704791,-0.02785 -1.135298,-0.04426 l -0.782744,-0.02981 -0.03012,-1.309048 -0.03012,-1.309047 -0.705256,-0.05553 c -1.123085,-0.08843 -1.444959,0.293697 -1.511006,1.793863 -0.03136,0.71232 -0.06263,1.36978 -0.0695,1.461026 -0.0069,0.09125 -0.170825,0.136282 -0.364371,0.100085 -0.39794,-0.07443 -0.407107,-0.887023 -0.03054,-2.707444 0.213313,-1.0312195 0.217274,-1.0353313 1.12112,-1.1641644 2.14449,-0.305674 2.260227,-0.22502 2.269927,1.5818564 l 0.0058,1.081236 1.149547,0.05424 1.149548,0.05424 0.07487,1.761995 0.07487,1.761994 z m -9.468066,6.793713 c -0.321871,-0.08861 -0.92081,-0.1421 -1.330981,-0.11886 -0.94282,0.05342 -1.120799,-0.24899 -1.300619,-2.209867 -0.232596,-2.5364 -0.992318,-3.033091 -2.338823,-1.52907 -0.774837,0.865486 -1.42159,2.416378 -1.350259,3.23789 0.09144,1.053127 0.04385,1.108089 -0.984283,1.136775 -0.540576,0.01507 -1.216599,0.117731 -1.502272,0.228104 -0.695618,0.268755 -0.785098,0.06962 -0.64969,-1.445883 0.06184,-0.692171 0.136441,-2.599216 0.165767,-4.237874 0.02933,-1.638658 0.109757,-3.036421 0.178729,-3.106134 0.06897,-0.06972 0.12451,-0.292922 0.123419,-0.496013 -0.0013,-0.219926 0.14317,-0.370033 0.356948,-0.37118 0.197412,-0.0013 0.821656,-0.124613 1.387211,-0.274561 l 1.028284,-0.272634 0.176456,0.775211 0.176458,0.775209 1.055534,-0.705793 c 0.953243,-0.637397 1.164646,-0.698438 2.181428,-0.62988 1.297189,0.08746 1.504583,0.220267 2.164312,1.385907 0.417256,0.737226 0.505164,1.239028 0.639973,3.653077 0.08595,1.539148 0.212833,3.151304 0.281952,3.582569 l 0.125673,0.784118 z M 37.31425,18.920622 c -0.21611,-3.667255 -0.706063,-4.628797 -2.354101,-4.619948 -0.744967,0.004 -1.174689,0.14784 -1.879727,0.629197 -0.502693,0.343204 -1.004694,0.795711 -1.115563,1.005573 -0.349606,0.661757 -0.800373,0.253576 -0.805651,-0.729534 -0.0053,-0.980001 -0.201373,-1.075463 -1.363039,-0.663494 -0.684081,0.2426 -0.676298,0.19233 -0.940542,6.074935 l -0.105864,2.356842 1.07407,-0.08359 c 1.007047,-0.07838 1.070436,-0.11479 1.01587,-0.583615 -0.103306,-0.887598 0.750157,-2.974244 1.568693,-3.835304 0.757897,-0.797267 0.778563,-0.804765 1.725944,-0.626221 1.151473,0.217011 1.466591,0.691923 1.479216,2.229326 0.01215,1.480435 0.2582,1.994234 1.026496,2.143605 0.765154,0.148764 1.052987,0.0092 0.920233,-0.445852 -0.05374,-0.184252 -0.164454,-1.467616 -0.246029,-2.851919 z m -10.541936,1.911379 c -0.496817,1.567098 -2.214468,2.943235 -3.988827,3.195742 -0.701425,0.09982 -1.338386,0.08331 -1.647981,-0.04272 -0.277556,-0.112977 -0.626708,-0.184221 -0.775896,-0.158305 -0.149187,0.02592 -0.4217,-0.08631 -0.605588,-0.249412 -0.183886,-0.163092 -0.652019,-0.380102 -1.040297,-0.482242 -0.388276,-0.102141 -0.683853,-0.28955 -0.65684,-0.416468 0.02701,-0.126915 -0.08684,-0.230023 -0.253003,-0.229132 -0.288464,0.0015 -0.337393,-0.08112 -0.386194,-0.65253 -0.01182,-0.13841 -0.0993,-0.307791 -0.194382,-0.376397 -0.304103,-0.219418 -0.407255,-2.704175 -0.156671,-3.774015 0.385938,-1.647731 1.153534,-2.524319 2.94582,-3.364113 1.855616,-0.869467 2.696493,-0.839939 4.22707,0.148441 1.745044,1.126871 3.110688,4.578282 2.532789,6.401149 z m -1.242531,-3.934287 c -0.773779,-1.546043 -1.700894,-2.287924 -3.199703,-2.560416 -0.76698,-0.139442 -1.027535,-0.07636 -2.21271,0.535696 -0.839165,0.433369 -1.508849,0.945828 -1.784289,1.36539 -0.558015,0.849996 -1.115022,3.041043 -0.954636,3.755169 0.06721,0.299245 0.171182,0.807095 0.231056,1.128554 0.164394,0.882598 0.423462,1.249464 1.043513,1.477713 0.866468,0.318957 1.127458,0.435528 1.6734,0.747407 0.662275,0.37834 2.242507,0.364285 3.167792,-0.02816 2.825415,-1.198395 3.532789,-3.429841 2.035577,-6.421343 z m -2.687648,3.014732 c -0.306326,0.20307 -0.80731,0.300344 -1.358149,0.263706 -0.838913,-0.0558 -0.875062,-0.0854 -0.931453,-0.762695 -0.119109,-1.430557 1.137618,-2.56681 2.274281,-2.056262 0.423453,0.190197 0.490602,0.35653 0.495276,1.226762 0.0046,0.842524 -0.07375,1.059212 -0.479955,1.328489 z M 22.475717,17.97318 c -0.383129,-0.202403 -0.504195,-0.15958 -0.915517,0.323834 -0.572625,0.672996 -0.526823,1.3904 0.09419,1.47539 0.527104,0.07213 1.267946,-0.61323 1.264955,-1.170239 -0.0013,-0.217653 -0.200804,-0.500695 -0.443637,-0.628985 z M 16.317738,4.2365506 C 16.196908,4.5735668 15.679647,5.235743 15.168268,5.7080553 14.656889,6.1803664 14.123727,6.8597119 13.983465,7.2177168 13.843202,7.5757172 13.707668,7.89776 13.682277,7.9333659 13.656905,7.9689695 13.239576,7.6057999 12.754917,7.1263189 11.749021,6.1311665 10.157167,5.6153397 8.8632958,5.8652697 8.1700127,5.9991875 6.5435454,7.2323933 6.5456385,7.6225409 c 6.052e-4,0.094604 -0.218557,0.6587346 -0.486813,1.2536259 -0.695053,1.5413652 -0.99828,3.3625142 -0.9507198,5.7099212 0.032669,1.612791 0.1280749,2.206229 0.4569426,2.842399 0.4885509,0.945066 1.4967767,1.84283 2.1162537,1.884394 1.5971016,0.107153 3.450599,-0.417831 4.598277,-1.302411 0.407214,-0.313861 0.78722,-0.495776 0.844464,-0.404259 0.05724,0.09152 0.600193,0.282598 1.206555,0.424622 1.376366,0.322382 1.481546,0.632669 0.694818,2.049731 -0.893876,1.610056 -1.697194,2.373528 -3.297084,3.133531 C 10.475612,23.809182 10.077,23.900867 8.7108065,23.908173 7.2957082,23.915709 5.5496467,23.669499 3.3412667,23.150924 2.5309905,22.960655 1.7911509,22.43133 1.789051,22.040376 1.7884469,21.913204 1.5220762,21.451848 1.1972895,21.015141 0.25824989,19.752509 -0.11237962,18.001081 0.02920592,15.495318 0.30565936,10.602597 0.58542538,9.1892276 1.803217,6.5330319 3.2601411,3.3552464 5.3926276,1.2784434 8.1018188,0.39889708 9.5035504,-0.05617859 9.7477482,-0.07888898 11.137924,0.11654095 c 1.853989,0.26063061 3.501004,1.02401435 4.441863,2.05878415 0.897414,0.9869869 1.010177,1.3019512 0.737951,2.0612255 z M 14.770882,2.35809 C 13.958325,1.5414308 13.486615,1.2548683 12.425724,0.9334239 11.022892,0.5083705 9.4527998,0.42026303 8.6833045,0.72341155 5.6727305,1.9094534 4.7272244,2.636431 3.2464763,4.9036586 1.4439743,7.6635387 0.7747287,10.199256 0.60944127,14.895169 c -0.12493016,3.549305 -0.0434483,3.955229 1.21845963,6.069889 0.8883382,1.488654 0.827732,1.457688 4.3986111,2.247118 2.7344232,0.604511 5.655959,-0.127099 7.264463,-1.819163 0.968025,-1.018314 1.640365,-2.334645 1.361952,-2.66647 -0.109928,-0.131024 -0.568087,-0.295079 -1.018124,-0.364566 -0.672786,-0.103888 -1.044879,-0.01327 -2.093127,0.509807 -1.283342,0.640373 -3.1868152,1.017449 -4.3245695,0.856698 C 6.6649712,19.622219 5.5701114,18.57099 4.9985748,17.406341 4.3440777,16.07264 4.3340692,12.511536 4.9784208,10.231907 5.3636309,8.8690484 6.2159052,6.8971242 6.6259705,6.4199236 7.1957771,5.756835 8.4878785,5.1873732 9.4463288,5.1769205 c 0.8827072,-0.00959 2.3365572,0.45965 3.1652752,1.0216942 0.295124,0.200158 0.596484,0.363599 0.669691,0.3632062 0.200336,-0.00126 2.230307,-2.0935612 2.362404,-2.4351608 C 15.86676,3.5498424 15.778281,3.3705578 14.770896,2.35809 Z"
       style="fill:#000000;stroke-width:0.30212"
       id="path1" />
    <path
       d="m 77.705871,14.877331 c -1.349312,-0.361218 -1.368423,-0.08574 -1.367936,3.077555 2.8e-4,2.276943 -0.154891,3.790974 -0.412385,4.021985 -0.07109,0.06378 -0.583204,0.12235 -1.138018,0.130154 -0.777768,0.01096 -1.110317,0.09979 -1.452317,0.388035 -0.794146,0.669329 -0.909301,0.5161 -0.809452,-1.077082 0.05008,-0.799214 0.12573,-2.387834 0.168088,-3.530265 0.04235,-1.142431 0.132666,-2.331203 0.200684,-2.641709 l 0.12367,-0.564556 -0.636493,0.10914 c -1.504836,0.258042 -1.383054,0.382446 -1.393983,-1.423999 -0.01108,-1.820452 -0.09633,-1.72006 1.572835,-1.85082 0.826868,-0.06477 0.837784,-0.07372 1.066661,-0.874758 0.127183,-0.44512 0.231622,-1.0147612 0.232088,-1.2658693 8.42e-4,-0.4544788 0.0069,-0.4565891 1.316224,-0.4628287 l 1.315377,-0.00626 -0.04501,1.286873 -0.04501,1.286873 0.747928,-0.04768 c 0.41136,-0.02623 0.931839,-0.08499 1.156618,-0.130585 0.39852,-0.08084 0.41042,-0.03744 0.478185,1.743891 l 0.0695,2.13905 z m 0.479849,-2.104652 -0.0066,-1.078716 -0.513835,0.09297 c -0.282612,0.05113 -0.838449,0.14429 -1.235196,0.207008 l -0.721359,0.114028 0.05943,-1.308846 0.05945,-1.3088478 -0.695443,-0.04788 c -0.629154,-0.043319 -0.706156,-0.00339 -0.80791,0.4189007 -0.06186,0.2567291 -0.188374,0.6837421 -0.281144,0.9489151 -0.09277,0.265174 -0.167555,0.666902 -0.166188,0.892727 0.0021,0.30912 -0.05555,0.368554 -0.232364,0.240481 -0.129164,-0.09356 -0.624329,-0.128999 -1.100361,-0.07875 l -0.86552,0.09137 -0.111413,0.751443 c -0.199308,1.344198 -0.155802,1.535421 0.348768,1.533013 0.250495,-0.0011 0.670914,-0.07606 0.934264,-0.166363 0.422083,-0.144735 0.482575,-0.120435 0.510521,0.205094 0.01743,0.203108 0.02351,0.481389 0.01352,0.618404 -0.246179,3.372817 -0.342992,7.144392 -0.183138,7.134516 0.05142,-0.0032 0.254454,-0.115079 0.451184,-0.248676 0.243054,-0.165052 0.586139,-0.211594 1.070478,-0.145218 0.646735,0.08863 0.730095,0.0566 0.899567,-0.345491 0.102723,-0.243747 0.175848,-1.824547 0.16249,-3.512885 -0.01335,-1.688346 0.0257,-3.142387 0.08682,-3.231203 0.0611,-0.08883 0.662802,-0.19155 1.335892,-0.167326 1.040002,0.03743 1.207423,0.56827 1.109666,-0.267898 -0.01799,-0.153876 -0.118061,-0.747482 -0.121653,-1.340774 z"
       style="fill:#000000;stroke-width:0.264331"
       id="path1-8" />
  </g>
</svg>
