<?xml version="1.0" encoding="UTF-8" standalone="no"?>
<!-- Created with Inkscape (http://www.inkscape.org/) -->

<svg
   width="91mm"
   height="24mm"
   viewBox="0 0 91 24"
   id="SVGRoot"
   version="1.1"
   xmlns="http://www.w3.org/2000/svg"
   xmlns:svg="http://www.w3.org/2000/svg">
  <defs
     id="defs1" />
  <g
     id="layer1">
    <path
       d="m 90.920326,18.542386 c -0.07884,0.755951 -0.322865,1.481311 -0.684154,2.033591 -0.558462,0.853683 -0.570232,0.859054 -2.101971,0.95887 -1.196494,0.07797 -1.823124,0.0035 -2.80697,-0.33388 -1.119529,-0.383835 -1.322236,-0.54258 -1.745713,-1.367127 -0.263512,-0.513079 -0.480619,-1.213472 -0.482462,-1.556429 -0.0019,-0.342954 -0.15154,-0.785551 -0.332666,-0.983546 -0.411629,-0.449964 -0.440669,-0.903751 -0.130269,-2.035537 0.472455,-1.722663 2.570535,-2.630942 5.059684,-2.190377 2.295364,0.406264 3.533796,2.508814 3.224521,5.474435 z m -0.791404,-2.434464 c -0.07023,-0.347297 -0.439717,-0.997354 -0.821095,-1.444575 -0.578867,-0.678803 -0.877254,-0.841174 -1.806306,-0.982929 -2.389728,-0.364623 -4.394229,0.721624 -4.126908,2.23639 0.06292,0.356508 0.181948,1.216753 0.264516,1.91166 0.181348,1.526259 0.604352,2.419943 1.144043,2.417045 0.219143,-0.0013 0.431676,0.09581 0.472297,0.215514 0.131292,0.386944 1.727786,0.756665 2.848041,0.659558 0.987424,-0.08559 1.139884,-0.170013 1.6128,-0.893043 0.715638,-1.094124 0.81791,-2.115221 0.412612,-4.11962 z m -2.484803,2.431459 c -0.839174,0.32422 -1.035506,0.280224 -1.669094,-0.374034 -0.48985,-0.505828 -0.545923,-0.678411 -0.371721,-1.144108 0.343987,-0.91959 1.584474,-1.329114 2.114069,-0.69792 0.141403,0.168535 0.310207,0.686857 0.375116,1.15183 0.10756,0.770482 0.06782,0.864798 -0.44837,1.064232 z m -0.54668,-1.571734 c -0.491778,-0.15318 -0.844628,0.01938 -0.84252,0.411986 0.0023,0.405774 0.580445,0.81434 0.949119,0.670591 0.460502,-0.179552 0.386714,-0.928917 -0.106603,-1.082577 z m -7.219257,-1.542176 c -0.250837,3.228068 -0.25828,3.828396 -0.06457,5.206524 l 0.183721,1.307018 -0.598375,0.136479 c -0.329107,0.07507 -1.11913,0.277703 -1.755609,0.450302 -0.636476,0.172602 -1.356678,0.366027 -1.600448,0.429834 -0.386852,0.101251 -0.459013,0.0029 -0.567428,-0.773797 -0.06832,-0.489392 -0.03792,-1.120511 0.06757,-1.402487 0.10548,-0.281976 0.197429,-1.004348 0.204338,-1.60527 0.02095,-1.823539 0.465423,-4.635994 0.747778,-4.7318 0.312656,-0.10609 0.359724,1.489964 0.08233,2.791972 -0.09887,0.464098 -0.238358,1.710277 -0.309963,2.769285 l -0.130193,1.925472 1.014248,-0.102638 c 0.557836,-0.05644 1.271261,-0.201743 1.585394,-0.322878 0.542643,-0.209249 0.563351,-0.269014 0.414991,-1.197674 -0.201409,-1.260744 -0.199863,-2.415523 0.0065,-4.823798 l 0.167068,-1.949985 -1.163696,0.0062 c -0.738975,0.0039 -1.198421,0.102566 -1.258852,0.270148 -0.07593,0.210572 -0.15234,0.210509 -0.378114,-3.09e-4 -0.234727,-0.219181 -0.212869,-0.328826 0.128243,-0.643329 0.331282,-0.30544 0.684591,-0.364948 1.817976,-0.306215 0.823807,0.04269 1.439097,0.174724 1.484758,0.318602 0.04288,0.135133 0.008,1.146865 -0.07764,2.248295 z m -0.825687,-4.556833 c -1.601478,0.32925 -2.166559,0.01577 -2.426777,-1.3462911 -0.198441,-1.0386922 0.544278,-1.9539869 1.566442,-1.9304181 0.997541,0.02301 1.333393,0.4640983 1.444818,1.8975633 l 0.09633,1.2391809 z m -0.24696,-2.3181453 c -0.317467,-0.3783723 -0.923448,-0.3533654 -1.327229,0.054774 -0.449237,0.4540853 -0.411863,0.8129217 0.152235,1.4616453 0.425051,0.488817 0.545689,0.524264 1.080713,0.317555 0.534432,-0.206481 0.586981,-0.306955 0.466655,-0.8922281 -0.07458,-0.3627492 -0.242147,-0.7865336 -0.372374,-0.9417462 z m -4.320888,2.2682743 c -0.322903,2.731159 -0.748044,5.583762 -0.974294,6.537306 -0.151432,0.638214 -0.333458,2.012057 -0.404499,3.052978 -0.07104,1.040919 -0.181019,2.159282 -0.244396,2.485247 l -0.115228,0.592664 -1.710701,-0.05156 c -1.104364,-0.03328 -1.696094,-0.134121 -1.669498,-0.284495 0.02266,-0.128113 0.09466,-1.361165 0.159985,-2.740115 0.06533,-1.37895 0.154084,-2.886653 0.197231,-3.350451 0.209591,-2.252907 0.494023,-10.606099 0.418973,-12.3044062 -0.06034,-1.3655589 -0.01384,-1.9210152 0.160949,-1.921878 0.135205,-6.322e-4 0.277884,0.082553 0.317062,0.184935 0.0404,0.1055522 0.846289,0.1114343 1.861365,0.013591 0.98457,-0.094908 1.832666,-0.1331671 1.884658,-0.085024 0.108109,0.1000967 0.212954,7.0713432 0.118394,7.8712142 z M 73.527673,3.636732 C 73.359138,3.5248617 72.842295,3.4955054 72.379136,3.5714965 71.915979,3.6474843 71.34741,3.7132669 71.11565,3.7176759 c -0.394264,0.00749 -0.42094,0.1521593 -0.414514,2.2477427 0.0037,1.2318481 -0.107715,4.5160324 -0.247763,7.2981814 -0.49572,9.848055 -0.498012,9.303384 0.03973,9.440925 0.259456,0.06636 0.733864,0.06677 1.054242,9.48e-4 0.528392,-0.108635 0.603062,-0.241687 0.803825,-1.432349 0.121729,-0.721927 0.219326,-1.684723 0.216883,-2.139547 -0.0025,-0.454826 0.08928,-1.158705 0.203836,-1.564174 0.172554,-0.61079 0.788566,-4.259556 1.067949,-6.325705 0.03921,-0.28994 0.05396,-2.0743467 0.03278,-3.9653453 C 73.8418,4.527083 73.772885,3.7995364 73.52768,3.6367763 Z m -5.931137,15.331433 c -0.466731,2.011589 -0.59171,2.262887 -1.565558,3.147966 -0.962006,0.874311 -1.092072,0.926398 -2.680882,1.073592 -1.622417,0.150308 -1.714851,0.133332 -3.256036,-0.597966 -1.565719,-0.74294 -1.592511,-0.76923 -2.073494,-2.034609 -0.452053,-1.18928 -0.469537,-1.388829 -0.241873,-2.76064 0.334988,-2.018502 0.859995,-3.1233 2.050325,-4.314575 1.264732,-1.265738 2.785923,-1.869022 4.198273,-1.664974 1.460415,0.21099 1.479713,0.227304 2.539098,2.146178 0.846773,1.533771 0.996043,1.983479 1.05703,3.18453 0.03906,0.769201 0.02696,1.588425 -0.0269,1.820498 z m -1.393269,-4.475637 c -0.807048,-1.898995 -1.142165,-2.14818 -2.87645,-2.138866 -0.989731,0.0054 -1.653916,0.334975 -2.759623,1.369716 -1.337603,1.251751 -2.14561,3.202201 -2.150335,5.190711 -0.0029,1.178671 0.406451,2.587049 0.698646,2.404286 0.108562,-0.0679 0.485464,0.116315 0.837562,0.409371 0.937293,0.780124 2.033935,1.036616 3.653116,0.854415 1.310851,-0.1475 1.433259,-0.209231 2.230444,-1.124744 1.050017,-1.205877 1.259431,-1.880953 1.167491,-3.763601 -0.05443,-1.114356 -0.255458,-1.917978 -0.800851,-3.201288 z m -1.764048,3.649744 c -0.161752,0.464432 -0.295393,0.868137 -0.296983,0.89712 -0.0016,0.02898 -0.342044,0.05452 -0.756567,0.05674 -1.055358,0.0056 -2.064063,-0.978829 -1.868802,-1.823948 0.222294,-0.962117 0.886928,-1.542172 1.772485,-1.546929 1.213494,-0.0066 1.66407,0.940596 1.149867,2.417017 z m -0.745762,-1.68497 c -0.256533,-0.07991 -0.646842,0.0074 -0.959433,0.214636 -0.412254,0.273294 -0.512023,0.495517 -0.458304,1.020818 0.05875,0.574506 0.159997,0.679891 0.701114,0.729754 0.484857,0.04468 0.687274,-0.05476 0.867367,-0.426083 0.38562,-0.795079 0.32733,-1.390208 -0.150744,-1.539125 z M 56.215072,5.8037995 c -0.142974,-0.047902 -0.625802,0.105066 -1.072944,0.3399326 -0.937185,0.4922658 -1.328667,1.2628255 -1.419817,2.79464 -0.0612,1.028379 -0.05266,1.044454 0.570172,1.0739239 0.347765,0.01647 0.737876,0.03807 0.866911,0.04802 0.152024,0.01173 0.244501,0.685652 0.262691,1.914361 l 0.02806,1.896258 -0.568448,0.006 c -1.23539,0.01289 -1.467309,0.190593 -1.474259,1.129634 -0.0049,0.662893 -0.380421,8.254135 -0.408313,8.254283 -1.09432,0.0059 -2.348241,0.164947 -2.800974,0.355332 -0.796903,0.335112 -1.015259,0.07043 -0.798683,-0.968138 0.09678,-0.464086 0.22986,-2.36121 0.295741,-4.215829 0.06588,-1.85462 0.170538,-3.585656 0.232569,-3.846746 0.096,-0.404024 0.02307,-0.478956 -0.489668,-0.503246 -0.331348,-0.01571 -0.868568,-0.006 -1.193816,0.02153 l -0.591362,0.05006 0.132941,-1.234316 c 0.07312,-0.678872 0.144198,-1.705374 0.157955,-2.281112 0.02706,-1.1324244 -0.08158,-1.0659688 1.486239,-0.9090844 0.617746,0.061815 0.618049,0.061259 0.886779,-1.625303 0.452994,-2.8430387 1.34546,-4.5233999 2.809182,-5.2892156 0.802779,-0.4200105 1.168035,-0.4893105 2.052352,-0.3893871 0.591674,0.066854 1.078339,0.1794482 1.081481,0.2502086 0.0031,0.070757 0.05284,0.8231622 0.110438,1.6720108 0.0789,1.1629051 0.04064,1.5218901 -0.155237,1.4562627 z M 54.722114,2.9573851 c -0.995072,-0.076787 -2.057077,0.5483797 -2.644867,1.5569416 -0.596734,1.023913 -1.272373,3.363175 -1.270638,4.3993293 0.0023,1.246276 -0.192704,1.455713 -1.278951,1.375097 l -0.923285,-0.06852 -0.05371,1.527952 -0.05371,1.527953 0.588849,0.02961 c 0.323867,0.01628 0.815749,0.0079 1.093076,-0.01861 0.482314,-0.04612 0.498682,-0.0061 0.37659,0.921698 -0.07021,0.533451 -0.172674,2.175385 -0.227718,3.648744 -0.05505,1.473356 -0.142848,3.176865 -0.195121,3.785578 l -0.09504,1.106748 1.029571,-0.0055 c 0.569321,-0.0031 1.124376,-0.12378 1.241649,-0.270054 0.116649,-0.145493 0.221905,-1.260198 0.23391,-2.477123 0.0349,-3.53724 0.175026,-6.590642 0.30866,-6.725676 0.06792,-0.06863 0.518547,-0.126909 1.001394,-0.129501 0.702319,-0.0037 0.873997,-0.07845 0.858365,-0.373354 -0.01075,-0.202754 -0.03738,-0.747827 -0.05918,-1.211278 -0.03487,-0.741096 -0.101048,-0.842309 -0.549175,-0.839901 -1.264542,0.0068 -1.439095,-0.611232 -0.921057,-3.261093 0.243697,-1.2465513 0.264134,-1.273619 1.357853,-1.7983414 l 1.110432,-0.5327439 -0.06541,-1.053209 -0.0654,-1.053209 z M 44.59266,13.929667 c -1.587583,0.008 -1.541494,-0.108826 -1.540948,3.906017 3.16e-4,2.889882 -0.174479,4.811478 -0.46454,5.104675 -0.0801,0.08096 -0.656967,0.155288 -1.281951,0.165191 -0.876138,0.01388 -1.250746,0.126649 -1.636002,0.492493 -0.894585,0.849509 -1.024305,0.655032 -0.911827,-1.367025 0.05642,-1.014356 0.141631,-3.030623 0.189347,-4.480589 0.04771,-1.44997 0.149444,-2.95875 0.226065,-3.352843 l 0.139311,-0.716532 -0.716993,0.138525 c -1.695163,0.327504 -1.557979,0.485397 -1.570289,-1.807335 -0.01242,-2.3105027 -0.108514,-2.1830847 1.77176,-2.3490466 0.931449,-0.082214 0.943744,-0.093574 1.20157,-1.1102363 0.143267,-0.5649446 0.260916,-1.2879305 0.261442,-1.6066332 9.47e-4,-0.5768221 0.0078,-0.5794992 1.482694,-0.5874198 l 1.481741,-0.00797 -0.05071,1.6332899 -0.05071,1.6332899 0.842525,-0.060527 c 0.463387,-0.033288 1.049695,-0.1078721 1.302902,-0.1657406 0.448924,-0.1025969 0.462329,-0.04753 0.538664,2.2133357 l 0.07829,2.318554 z m 0.540539,-2.671209 -0.0074,-1.3690981 -0.578822,0.1180001 c -0.318314,0.0649 -0.944452,0.18313 -1.391378,0.262731 l -0.812594,0.144725 0.06696,-1.6611792 0.06697,-1.6611794 -0.783399,-0.060769 c -0.708728,-0.054977 -0.795468,-0.0043 -0.910092,0.5316662 -0.06968,0.3258395 -0.212199,0.8677999 -0.316702,1.204357 -0.104501,0.336557 -0.188747,0.8464276 -0.187207,1.1330434 0.0023,0.392333 -0.06258,0.467764 -0.261751,0.305216 -0.1455,-0.118748 -0.703293,-0.163724 -1.239532,-0.09995 l -0.974986,0.115961 -0.125509,0.953731 c -0.224516,1.706048 -0.175507,1.948743 0.392879,1.945691 0.282176,-0.0016 0.755768,-0.09653 1.052425,-0.211147 0.475467,-0.1837 0.543611,-0.152858 0.575091,0.260303 0.01963,0.257781 0.02648,0.610973 0.01523,0.784871 -0.277313,4.280762 -0.386372,9.06762 -0.206301,9.055087 0.05792,-0.0041 0.286639,-0.146059 0.508249,-0.315617 0.273794,-0.209484 0.660273,-0.268556 1.205868,-0.184313 0.728533,0.112493 0.822436,0.07185 1.01334,-0.438493 0.115718,-0.309363 0.19809,-2.315703 0.183043,-4.458535 -0.01505,-2.142835 0.02895,-3.988295 0.0978,-4.101022 0.06883,-0.112731 0.746016,-0.208292 1.504851,-0.212367 1.171537,-0.0063 1.360131,-0.05759 1.250012,-0.340014 -0.07133,-0.182931 -0.132993,-0.9487 -0.137039,-1.701702 z m -10.731071,2.725495 c -0.231443,0.0013 -0.777317,0.32784 -1.213054,0.725771 -0.943954,0.862057 -1.261854,2.040281 -1.42989,5.299566 l -0.108968,2.11356 -1.501097,0.008 c -0.825602,0.0044 -1.813225,0.139315 -2.194717,0.299739 -1.088102,0.457569 -1.19624,0.193087 -1.223157,-2.991591 -0.05564,-6.583676 -0.105791,-7.309737 -0.504768,-7.307873 -0.286316,0.0013 -0.232528,-0.116697 0.24065,-0.528072 0.335161,-0.291385 0.778676,-0.530702 0.985591,-0.531815 0.206911,-0.0013 0.42679,-0.08486 0.488622,-0.18612 0.06183,-0.101254 0.374854,-0.238524 0.695611,-0.305046 0.320757,-0.06652 0.74878,-0.186032 0.951162,-0.265578 0.304216,-0.119574 0.371194,-0.02209 0.386577,0.562624 0.01027,0.388992 0.08928,0.884305 0.175658,1.100695 0.14429,0.361466 0.186074,0.348621 0.514205,-0.158083 0.388932,-0.600599 1.737024,-1.381577 2.821041,-1.634288 0.692458,-0.16143 0.807562,-0.03161 0.705169,0.795393 -0.01782,0.144109 0.1161,0.691919 0.297641,1.21736 0.453305,1.311992 0.430548,1.782923 -0.08628,1.785698 z m -0.753116,-2.490429 c -0.110698,-0.743172 -0.206787,-0.753211 -1.301813,-0.136005 -0.629697,0.354924 -1.248887,0.938683 -1.638948,1.545159 -0.344796,0.536098 -0.721566,1.003868 -0.837264,1.039489 -0.121356,0.03737 -0.241808,-0.534859 -0.284679,-1.352367 -0.04087,-0.779422 -0.112206,-1.454619 -0.158515,-1.500439 -0.04631,-0.04582 -0.59035,0.125294 -1.208969,0.38025 l -1.124759,0.463555 0.09165,4.573947 c 0.05041,2.515673 0.09239,4.793682 0.0933,5.062241 0.0013,0.412486 0.07511,0.463561 0.474894,0.328991 0.260285,-0.08762 1.136678,-0.21724 1.947539,-0.288048 l 1.474291,-0.128742 0.137851,-2.107859 c 0.232251,-3.551315 0.356563,-3.962668 1.52729,-5.053954 0.566782,-0.528319 1.095,-0.961939 1.17382,-0.963598 0.07882,-0.0016 0.04529,-0.310656 -0.07452,-0.686661 -0.119804,-0.376005 -0.250829,-0.905187 -0.291161,-1.175959 z m -9.628106,6.971123 c -0.659918,2.920508 -2.354919,4.572535 -4.936222,4.811068 -1.479392,0.136707 -3.007155,-0.450163 -3.460516,-1.32931 -0.547907,-1.062485 -0.634305,-1.536858 -0.280254,-1.538758 0.191917,-9.48e-4 0.423721,0.331933 0.574329,0.82497 0.226117,0.740237 0.365394,0.863096 1.331714,1.174748 2.352844,0.758818 4.072751,0.215318 5.342678,-1.688319 1.109986,-1.663886 1.423309,-4.877385 0.644713,-6.612289 -0.720607,-1.605692 -0.926822,-1.743574 -2.594257,-1.734623 -1.904159,0.01027 -2.587662,0.357171 -4.224665,2.144443 -1.120347,1.223188 -1.379545,1.657789 -1.691923,2.836864 -0.258442,0.975508 -0.324872,1.71106 -0.221874,2.456767 0.110952,0.803257 0.08264,1.043309 -0.115371,0.978482 -0.407331,-0.133349 -0.629831,-1.214171 -0.488932,-2.375056 0.248611,-2.04842 0.657905,-2.870178 2.240134,-4.497647 1.235866,-1.271198 1.700846,-1.603283 2.634023,-1.881197 1.326045,-0.394916 3.468317,-0.281205 4.020802,0.213418 1.225856,1.097471 1.764722,3.830627 1.225621,6.216439 z M 20.337228,17.85229 c -0.09982,0.75292 -0.736109,1.268227 -1.571541,1.272711 -0.807536,0.0043 -1.088741,-0.24634 -1.250234,-1.1145 -0.124645,-0.670086 0.483151,-2.135451 0.963403,-2.322707 0.168873,-0.06584 0.63628,-0.03072 1.038686,0.07808 0.615768,0.166469 0.744153,0.305612 0.810608,0.878531 0.04342,0.374402 0.04751,0.917953 0.0091,1.207888 z m -1.165794,-1.363369 c -0.497753,0.0025 -0.641944,0.130256 -0.852844,0.754605 -0.214285,0.634374 -0.202988,0.798354 0.07253,1.052978 0.677005,0.625645 1.442638,0.06942 1.405914,-1.02139 -0.0243,-0.721744 -0.07792,-0.789133 -0.625605,-0.786193 z M 14.968155,8.7844524 c -0.463134,0.9447423 -1.095377,1.9146436 -1.404984,2.1553416 -0.309606,0.240695 -1.034972,0.819568 -1.611924,1.286387 -1.520496,1.230253 -3.2197321,1.925953 -5.4365235,2.225821 -0.3309116,0.04476 -0.6536727,0.133961 -0.7172394,0.198217 -0.1430821,0.144624 -0.3894563,3.500839 -0.4698378,6.400272 -0.054986,1.98354 -0.093427,2.161319 -0.447976,2.071724 -0.2133014,-0.0539 -1.2086711,-0.0085 -2.2119357,0.100786 -1.1620013,0.126638 -1.85000204,0.124931 -1.89544244,-0.0047 C 0.73306246,23.106423 0.5776918,23.015508 0.42702751,23.016318 0.13139752,23.017871 -0.15485485,22.017162 0.09629553,21.860075 0.38835078,21.6774 0.49874548,19.486764 0.590268,12.05795 0.64273475,7.7991962 0.76912524,4.4695428 0.88373929,4.326641 1.0136793,4.1646363 1.0043649,3.926789 0.85747426,3.6558215 0.54156571,3.0730825 0.57022,2.5764803 0.91985953,2.5746029 1.0812953,2.5736547 1.2643561,2.438016 1.3266618,2.2729993 1.3889706,2.1079856 2.2331698,1.5745969 3.2026631,1.0876948 L 4.9653748,0.20241662 8.1420527,0.06790639 C 11.13825,-0.05896467 11.374703,-0.03988093 12.303863,0.40377443 12.845685,0.66248502 13.558,1.0980553 13.886789,1.3717094 c 0.766075,0.6376171 1.670989,2.8611935 1.812952,4.4548427 0.100762,1.1311091 0.0364,1.39134 -0.731579,2.9579342 z M 14.644433,3.7085132 C 14.063455,2.057862 13.543246,1.4783247 12.024656,0.7899732 11.200938,0.4165948 10.833596,0.38821861 8.5464651,0.52129392 7.1400013,0.6031256 5.705102,0.72647603 5.3577984,0.79540635 4.427229,0.98009488 2.497724,2.0134297 1.8377139,2.6805672 1.3054344,3.2185927 1.2625667,3.3908788 1.2675605,4.9719455 c 0.00284,0.9402891 -0.036701,3.0373262 -0.088165,4.6600849 -0.051462,1.6227586 -0.1211124,4.6099756 -0.1547826,6.6382606 -0.0336677,2.028283 -0.12516111,4.270485 -0.20332056,4.982671 -0.13159297,1.199073 -0.10911449,1.305159 0.30379396,1.433775 0.2452463,0.07639 1.1121327,0.06963 1.9264135,-0.01502 1.2776552,-0.132829 1.4931761,-0.215176 1.5729448,-0.601004 0.1290865,-0.624402 0.2716752,-2.44378 0.4221183,-5.386155 L 5.1750291,14.171985 6.249708,14.019131 c 0.591076,-0.08407 1.2639312,-0.225549 1.4952395,-0.314397 0.2313048,-0.08885 0.4679445,-0.165201 0.5258668,-0.169666 0.6089432,-0.04695 2.7010687,-1.156066 3.8956907,-2.065251 1.207913,-0.919306 1.641894,-1.415823 2.254396,-2.5792653 0.944078,-1.7932749 0.995631,-2.9883617 0.223532,-5.182029 z M 10.725976,8.0356599 C 10.461276,9.0789793 10.162647,9.2890383 7.7796032,10.108161 5.4186762,10.919683 4.9770744,10.87934 5.1800415,9.8706932 5.2555503,9.4954246 5.3630677,8.1451191 5.4189569,6.8700081 5.4748508,5.5949004 5.5502534,4.5211504 5.5865277,4.483893 5.6228068,4.4466379 6.3535341,4.3593481 7.2103771,4.2899184 8.434234,4.190744 8.9168227,4.2394872 9.461087,4.5172439 c 1.03219,0.5267641 1.613593,2.1439885 1.264889,3.518416 z M 9.9913212,6.112543 C 9.898957,5.6632491 9.6293089,5.2991218 9.1953822,5.0377058 8.5422268,4.6442193 7.0648389,4.5149272 6.6202065,4.812343 6.389032,4.966977 6.1951842,6.0038551 5.7908757,9.2483261 L 5.6779888,10.154262 6.2797574,10.013446 C 7.6945999,9.6823698 9.4323242,8.9715019 9.7719024,8.5848867 10.15299,8.1510104 10.230608,7.2764248 9.991326,6.112543 Z"
       style="fill:#000000;stroke-width:0.316063"
       id="path1" />
  </g>
</svg>
